<svg width="560" height="740" viewBox="0 0 550 731" xmlns="http://www.w3.org/2000/svg" font-family="Arial, sans-serif">
  <defs>
    <pattern id="soffit-hatch" width="8" height="8" patternUnits="userSpaceOnUse" patternTransform="rotate(45)">
      <rect width="8" height="8" fill="#ffff00"/>
      <line x1="0" y1="0" x2="0" y2="8" stroke="#cccc00" stroke-width="2"/>
    </pattern>
    <marker id="arrowhead" markerWidth="6" markerHeight="4" refX="6" refY="2" orient="auto">
      <polygon points="0,0 6,2 0,4" fill="#333"/>
    </marker>
    <marker id="arrowhead-left" markerWidth="6" markerHeight="4" refX="0" refY="2" orient="auto">
      <polygon points="6,0 0,2 6,4" fill="#333"/>
    </marker>
  </defs>

  <!-- White background for label area -->
  <rect x="441" y="0" width="109" height="731" fill="white"/>

  <!-- Garage: x=0, y=0, w=110, h=150 -->
  <rect x="0" y="0" width="110" height="150" fill="#db791e" stroke="#000" stroke-width="2"/>

  <!-- Wall Space: x=110, y=0, w=8, h=150 -->
  <rect x="110" y="0" width="8" height="150" fill="#8B6914" stroke="#000" stroke-width="1"/>

  <!-- Office: x=118, y=0, w=110, h=150 -->
  <rect x="118" y="0" width="110" height="150" fill="#2a6dbf" stroke="#000" stroke-width="2"/>

  <!-- Office door: bottom of office, left side -->
  <rect x="118" y="150" width="20" height="5" fill="#333" stroke="#000" stroke-width="1"/>

  <!-- Dirt (below office): x=138, y=150, w=90, h=18 -->
  <rect x="138" y="150" width="90" height="18" fill="#59320e" stroke="#000" stroke-width="1"/>

  <!-- Driveway (grey, L-shape with area in front of office) -->
  <polygon points="0,150 118,150 118,168 228,168 228,368 118,368 118,368 0,368 0,150"
           fill="#7f7f7f" stroke="#000" stroke-width="1"/>
  <!-- Driveway continues down -->
  <rect x="0" y="368" width="118" height="144" fill="#7f7f7f" stroke="#000" stroke-width="1"/>

  <!-- Grass: x=228, y=0, w=207, h=344 -->
  <rect x="228" y="0" width="207" height="344" fill="#3f7f00" stroke="#000" stroke-width="1"/>

  <!-- Horizontal Path: x=228, y=344, w=207, h=24 -->
  <rect x="228" y="344" width="207" height="24" fill="#7f7f7f" stroke="#000" stroke-width="1"/>

  <!-- Vertical Path: x=417, y=0, w=24, h=731 -->
  <rect x="417" y="0" width="24" height="731" fill="#7f7f7f" stroke="#000" stroke-width="1"/>

  <!-- House soffit (hatched, outer): x=118, y=368, w=299, h=363 -->
  <rect x="118" y="368" width="299" height="363" fill="url(#soffit-hatch)" stroke="#000" stroke-width="2"/>

  <!-- House walls (solid yellow, inner): x=136, y=386, w=263, h=327 -->
  <rect x="136" y="386" width="263" height="327" fill="#ffff00" stroke="#000" stroke-width="1"/>

  <!-- Fibre box (right wall, 1/5 up from bottom) -->
  <rect x="395" y="655" width="6" height="10" fill="#000" stroke="#000" stroke-width="1"/>
  <!-- Fibre box label (outside, right of path) -->
  <text x="455" y="663" text-anchor="start" fill="#333" font-size="8">Fibre Box</text>
  <line x1="453" y1="660" x2="403" y2="660" stroke="#333" stroke-width="1" marker-end="url(#arrowhead)"/>

  <!-- Labels -->
  <text x="55" y="80" text-anchor="middle" fill="white" font-weight="bold" font-size="12">Garage</text>
  <text x="114" y="80" text-anchor="middle" fill="white" font-weight="bold" font-size="5"
        transform="rotate(-90,114,80)">Wall Space</text>
  <text x="173" y="50" text-anchor="middle" fill="white" font-weight="bold" font-size="12">Office</text>
  <text x="331" y="30" text-anchor="middle" fill="white" font-weight="bold" font-size="16">Grass</text>
  <text x="55" y="350" text-anchor="middle" fill="white" font-weight="bold" font-size="11">Driveway</text>
  <text x="331" y="360" text-anchor="middle" fill="white" font-weight="bold" font-size="9">Horizontal Path</text>
  <text x="429" y="400" text-anchor="middle" fill="white" font-weight="bold" font-size="8"
        transform="rotate(-90,429,400)">Vertical Path</text>
  <text x="267" y="560" text-anchor="middle" fill="#333" font-weight="bold" font-size="18">House</text>
  <text x="170" y="162" text-anchor="middle" fill="white" font-size="6">Dirt</text>
  <text x="155" y="380" fill="#666" font-size="7">Soffit</text>
  <text x="131" y="156" text-anchor="middle" fill="white" font-size="5">Door</text>

  <!-- Office ethernet port (on wall space wall) -->
  <rect x="115" y="70" width="6" height="10" fill="#000" stroke="#000" stroke-width="1"/>
  <text x="135" y="78" text-anchor="start" fill="white" font-size="7">Ethernet Port</text>

  <!-- House ethernet port (below fibre box) -->
  <rect x="395" y="670" width="6" height="10" fill="#000" stroke="#000" stroke-width="1"/>
  <!-- Ethernet port label (outside, right of path) -->
  <text x="455" y="678" text-anchor="start" fill="#333" font-size="8">Ethernet Port</text>
  <line x1="453" y1="675" x2="403" y2="675" stroke="#333" stroke-width="1" marker-end="url(#arrowhead)"/>

  <!-- Ethernet cable route (red dotted line) -->
  <path d="
    M 118,75
    L 114,75
    L 114,155
    L 228,155
    L 399,344
    L 399,675
  "
  fill="none" stroke="#e63946" stroke-width="3" stroke-dasharray="8,5"/>

  <!-- Measurement: Down wall space (270cm) -->
  <line x1="96" y1="75" x2="100" y2="75" stroke="#000" stroke-width="1"/>
  <line x1="98" y1="75" x2="98" y2="165" stroke="#000" stroke-width="1"/>
  <line x1="96" y1="165" x2="100" y2="165" stroke="#000" stroke-width="1"/>
  <text x="92" y="123" text-anchor="end" fill="#000" font-size="6" transform="rotate(-90,92,123)">270cm</text>

  <!-- Measurement: Along office bottom (380cm) -->
  <line x1="114" y1="185" x2="114" y2="189" stroke="#000" stroke-width="1"/>
  <line x1="114" y1="187" x2="225" y2="187" stroke="#000" stroke-width="1"/>
  <line x1="225" y1="185" x2="225" y2="189" stroke="#000" stroke-width="1"/>
  <text x="171" y="184" text-anchor="middle" fill="#000" font-size="6">380cm</text>

  <!-- Measurement: Diagonal (≈849cm) - offset up-right from red line -->
  <!-- Start tick (perpendicular to 48° diagonal) -->
  <line x1="241" y1="136" x2="235" y2="142" stroke="#000" stroke-width="1"/>
  <!-- Measurement line parallel to cable -->
  <line x1="238" y1="139" x2="409" y2="328" stroke="#000" stroke-width="1"/>
  <!-- End tick -->
  <line x1="412" y1="325" x2="406" y2="331" stroke="#000" stroke-width="1"/>
  <!-- Label rotated to match line angle -->
  <text x="324" y="227" text-anchor="middle" fill="#000" font-size="6" font-weight="bold"
        transform="rotate(48,324,227)">≈849cm</text>

  <!-- Measurement: Down house wall (1100cm) -->
  <line x1="390" y1="348" x2="394" y2="348" stroke="#000" stroke-width="1"/>
  <line x1="392" y1="348" x2="392" y2="675" stroke="#000" stroke-width="1"/>
  <line x1="390" y1="675" x2="394" y2="675" stroke="#000" stroke-width="1"/>
  <text x="386" y="520" text-anchor="end" fill="#000" font-size="6" transform="rotate(-90,386,520)">1100cm</text>

  <!-- Legend (in grass, below label) -->
  <rect x="310" y="45" width="110" height="25" rx="4" fill="rgba(0,0,0,0.4)" stroke="none"/>
  <line x1="318" y1="58" x2="348" y2="58" stroke="#e63946" stroke-width="3" stroke-dasharray="8,5"/>
  <text x="355" y="62" fill="white" font-size="9">Ethernet Cable</text>
</svg>
