<svg xmlns="http://www.w3.org/2000/svg" font-family="Arial, sans-serif" viewBox="0 0 1700 2525" width="500">
  <defs>
    <pattern id="soffit-hatch" width="40" height="40" patternUnits="userSpaceOnUse" patternTransform="rotate(45)">
      <rect width="40" height="40" fill="#ffff00"/>
      <line x1="0" y1="0" x2="0" y2="40" stroke="#cccc00" stroke-width="8"/>
    </pattern>
    <marker id="arrowhead" markerWidth="6" markerHeight="4" refX="6" refY="2" orient="auto">
      <polygon points="0,0 6,2 0,4" fill="#333"/>
    </marker>
    <marker id="arrowhead-white" markerWidth="6" markerHeight="4" refX="6" refY="2" orient="auto">
      <polygon points="0,0 6,2 0,4" fill="white"/>
    </marker>
  </defs>

  <!-- White background for label area -->
  <rect x="1541" y="0" width="159" height="2525" fill="white"/>

  <!-- Garage: x=26, w=373, h=500 -->
  <rect x="26" y="0" width="373" height="500" fill="#db791e" stroke="#000" stroke-width="4"/>

  <!-- Wall Space: x=399, w=17, h=500 -->
  <rect x="399" y="0" width="17" height="500" fill="#8B6914" stroke="#000" stroke-width="2"/>

  <!-- Office: x=416, w=365, h=500 -->
  <rect x="416" y="0" width="365" height="500" fill="#2a6dbf" stroke="#000" stroke-width="4"/>

  <!-- Office door: x=416, y=500, w=60, h=78 -->
  <rect x="416" y="500" width="60" height="78" fill="#333" stroke="#000" stroke-width="2"/>

  <!-- Dirt below office: x=476, y=500, w=305, h=78 -->
  <rect x="476" y="500" width="305" height="78" fill="#59320e" stroke="#000" stroke-width="2"/>

  <!-- Heat pump on dirt -->
  <rect x="630" y="515" width="78" height="30" fill="white" stroke="#000" stroke-width="2"/>

  <!-- Driveway (L-shape) -->
  <polygon points="0,500 416,500 416,578 781,578 781,1197 301,1197 0,1197"
           fill="#7f7f7f" stroke="#000" stroke-width="2"/>
  <!-- Driveway vertical continues below h-path to bottom of diagram -->
  <rect x="0" y="1197" width="301" height="1328" fill="#7f7f7f" stroke="#000" stroke-width="2"/>

  <!-- Grass: x=781, w=680 (fills between office right and vertical path) -->
  <rect x="781" y="0" width="680" height="578" fill="#3f7f00" stroke="#000" stroke-width="2"/>
  <rect x="781" y="578" width="680" height="619" fill="#3f7f00" stroke="#000" stroke-width="2"/>

  <!-- Horizontal Path: x=301, y=1197, w=1160, h=80 -->
  <rect x="301" y="1197" width="1160" height="80" fill="#7f7f7f" stroke="#000" stroke-width="2"/>

  <!-- Vertical Path: x=1461, w=80, h=2525 -->
  <rect x="1461" y="0" width="80" height="2525" fill="#7f7f7f" stroke="#000" stroke-width="2"/>

  <!-- House dirt bed: top (80cm) and right (80cm) only -->
  <rect x="301" y="1277" width="1160" height="80" fill="#59320e" stroke="#000" stroke-width="2"/>
  <rect x="1381" y="1277" width="80" height="1248" fill="#59320e" stroke="#000" stroke-width="2"/>

  <!-- House soffit (hatched, 50cm within dirt bed, 30cm inset from outer edge): top and right -->
  <rect x="301" y="1307" width="1080" height="50" fill="url(#soffit-hatch)" stroke="#000" stroke-width="2"/>
  <rect x="1381" y="1307" width="50" height="1218" fill="url(#soffit-hatch)" stroke="#000" stroke-width="2"/>

  <!-- House walls: inset from soffit -->
  <rect x="301" y="1357" width="1080" height="1168" fill="#ffff00" stroke="#000" stroke-width="2"/>

  <!-- House heat pump (under soffit, top-right corner, dashed) -->
  <rect x="1330" y="1300" width="60" height="30" fill="white" stroke="#000" stroke-width="2" stroke-dasharray="10,5"/>

  <!-- Fibre box (right wall, near bottom) -->
  <rect x="1371" y="2300" width="20" height="40" fill="#000" stroke="#000" stroke-width="2"/>
  <text x="1555" y="2325" text-anchor="start" fill="#333" font-size="30">Fibre Box</text>
  <line x1="1545" y1="2320" x2="1395" y2="2320" stroke="#333" stroke-width="2" marker-end="url(#arrowhead)"/>

  <!-- Office fibre outlet (on wall space wall) -->
  <rect x="411" y="220" width="20" height="40" fill="#000" stroke="#000" stroke-width="2"/>
  <text x="445" y="245" text-anchor="start" fill="white" font-size="24">Fibre Outlet</text>

  <!-- House fibre outlet (below fibre box) -->
  <rect x="1371" y="2360" width="20" height="40" fill="#000" stroke="#000" stroke-width="2"/>
  <text x="1555" y="2385" text-anchor="start" fill="#333" font-size="30">Fibre Outlet</text>
  <line x1="1545" y1="2380" x2="1395" y2="2380" stroke="#333" stroke-width="2" marker-end="url(#arrowhead)"/>

  <!-- Labels -->
  <text x="212" y="260" text-anchor="middle" fill="white" font-weight="bold" font-size="40">Garage</text>
  <text x="408" y="260" text-anchor="middle" fill="white" font-weight="bold" font-size="14"
        transform="rotate(-90,408,260)">Wall Space</text>
  <text x="598" y="160" text-anchor="middle" fill="white" font-weight="bold" font-size="40">Office</text>
  <text x="1121" y="100" text-anchor="middle" fill="white" font-weight="bold" font-size="55">Grass</text>
  <text x="150" y="900" text-anchor="middle" fill="white" font-weight="bold" font-size="35">Driveway</text>
  <text x="1121" y="1247" text-anchor="middle" fill="white" font-weight="bold" font-size="30">Horizontal Path</text>
  <text x="1501" y="1400" text-anchor="middle" fill="white" font-weight="bold" font-size="25"
        transform="rotate(-90,1501,1400)">Vertical Path</text>
  <text x="841" y="1970" text-anchor="middle" fill="#333" font-weight="bold" font-size="60">House</text>
  <text x="580" y="545" text-anchor="middle" fill="white" font-size="18">Dirt</text>
  <text x="400" y="1340" fill="#666" font-size="25">Soffit</text>
  <text x="446" y="545" text-anchor="middle" fill="white" font-size="16">Door</text>

  <!-- Fibre cable route (red dotted line) -->
  <!-- Route: wall space down, along office front wall, down through grass alongside driveway, along h-path, down house wall -->
  <path d="
    M 416,240
    L 408,240
    L 408,510
    L 801,510
    L 801,1177
    L 1381,1177
    L 1381,2380
  "
  fill="none" stroke="#e63946" stroke-width="10" stroke-dasharray="25,15"/>

  <!-- Bend markers -->
  <!-- Bend 1 (sweep): House downpipe base → along ground towards path -->
  <circle cx="1381" cy="1277" r="18" fill="none" stroke="#ff6b00" stroke-width="4"/>
  <text x="1381" y="1283" text-anchor="middle" fill="#ff6b00" font-size="18" font-weight="bold">1</text>
  <text x="1413" y="1305" fill="#ff6b00" font-size="18">Sweep</text>

  <!-- Bend 2 (sweep): Under path → turns left onto horizontal path edge -->
  <circle cx="1381" cy="1177" r="18" fill="none" stroke="#ff6b00" stroke-width="4"/>
  <text x="1381" y="1183" text-anchor="middle" fill="#ff6b00" font-size="18" font-weight="bold">2</text>
  <text x="1413" y="1210" fill="#ff6b00" font-size="18">Sweep</text>

  <!-- Bend 3 (sweep): Horizontal path → turns up driveway edge (at pull box) -->
  <circle cx="801" cy="1177" r="18" fill="none" stroke="#ff6b00" stroke-width="4"/>
  <text x="801" y="1183" text-anchor="middle" fill="#ff6b00" font-size="18" font-weight="bold">3</text>
  <text x="833" y="1210" fill="#ff6b00" font-size="18">Sweep</text>

  <!-- Bend 4 (sweep): Driveway edge → turns at office front -->
  <circle cx="801" cy="510" r="18" fill="none" stroke="#ff6b00" stroke-width="4"/>
  <text x="765" y="492" text-anchor="end" fill="#ff6b00" font-size="18">Sweep</text>
  <text x="785" y="492" fill="#ff6b00" font-size="18" font-weight="bold">4</text>

  <!-- Bend 5 (standard 90°): Top of office wall → towards overhang -->
  <circle cx="408" cy="510" r="18" fill="none" stroke="#ff6b00" stroke-width="4"/>
  <text x="408" y="516" text-anchor="middle" fill="#ff6b00" font-size="18" font-weight="bold">5</text>
  <text x="355" y="492" text-anchor="end" fill="#ff6b00" font-size="18">90°</text>

  <!-- Measurement: Down wall space (270cm) -->
  <line x1="365" y1="240" x2="385" y2="240" stroke="#000" stroke-width="3"/>
  <line x1="375" y1="240" x2="375" y2="510" stroke="#000" stroke-width="3"/>
  <line x1="365" y1="510" x2="385" y2="510" stroke="#000" stroke-width="3"/>
  <text x="360" y="385" text-anchor="end" fill="#000" font-size="22" transform="rotate(-90,360,385)">270cm</text>

  <!-- Measurement: Along office front (393cm) -->
  <line x1="408" y1="530" x2="408" y2="550" stroke="#000" stroke-width="3"/>
  <line x1="408" y1="540" x2="801" y2="540" stroke="#000" stroke-width="3"/>
  <line x1="801" y1="530" x2="801" y2="550" stroke="#000" stroke-width="3"/>
  <text x="604" y="530" text-anchor="middle" fill="#000" font-size="22">393cm</text>

  <!-- Measurement: Down alongside driveway through grass (667cm) -->
  <line x1="820" y1="510" x2="840" y2="510" stroke="#000" stroke-width="3"/>
  <line x1="830" y1="510" x2="830" y2="1177" stroke="#000" stroke-width="3"/>
  <line x1="820" y1="1177" x2="840" y2="1177" stroke="#000" stroke-width="3"/>
  <text x="850" y="845" text-anchor="start" fill="#000" font-size="22" transform="rotate(90,850,845)">667cm</text>

  <!-- Measurement: Along horizontal path (600cm) -->
  <line x1="781" y1="1140" x2="781" y2="1160" stroke="#000" stroke-width="3"/>
  <line x1="781" y1="1150" x2="1381" y2="1150" stroke="#000" stroke-width="3"/>
  <line x1="1381" y1="1140" x2="1381" y2="1160" stroke="#000" stroke-width="3"/>
  <text x="1081" y="1140" text-anchor="middle" fill="#000" font-size="22">600cm</text>

  <!-- Measurement: Down to house fibre outlet -->
  <line x1="1348" y1="1277" x2="1368" y2="1277" stroke="#000" stroke-width="3"/>
  <line x1="1358" y1="1277" x2="1358" y2="2380" stroke="#000" stroke-width="3"/>
  <line x1="1348" y1="2380" x2="1368" y2="2380" stroke="#000" stroke-width="3"/>
  <text x="1343" y="1840" text-anchor="end" fill="#000" font-size="22" transform="rotate(-90,1343,1840)">1103cm</text>

  <!-- Pull box at driveway/path corner -->
  <rect x="781" y="1157" width="40" height="40" fill="#e63946" stroke="#000" stroke-width="3" rx="4"/>
  <text x="801" y="1182" text-anchor="middle" fill="white" font-size="14" font-weight="bold">PB</text>
  <text x="713" y="1142" text-anchor="end" fill="#e63946" font-size="22">Pull Box</text>
  <line x1="718" y1="1145" x2="758" y2="1167" stroke="#e63946" stroke-width="2" marker-end="url(#arrowhead)"/>

  <!-- Legend -->
  <rect x="1060" y="150" width="350" height="170" rx="10" fill="rgba(0,0,0,0.4)" stroke="none"/>
  <line x1="1085" y1="190" x2="1160" y2="190" stroke="#e63946" stroke-width="10" stroke-dasharray="25,15"/>
  <text x="1180" y="200" fill="white" font-size="30">Fibre Cable</text>
  <rect x="1085" y="220" width="30" height="30" fill="#e63946" stroke="white" stroke-width="2" rx="4"/>
  <text x="1105" y="242" text-anchor="middle" fill="white" font-size="12" font-weight="bold">PB</text>
  <text x="1180" y="243" fill="white" font-size="30">Pull Box</text>
  <circle cx="1100" cy="280" r="14" fill="none" stroke="#ff6b00" stroke-width="3"/>
  <text x="1100" y="286" text-anchor="middle" fill="#ff6b00" font-size="14" font-weight="bold">N</text>
  <text x="1180" y="290" fill="white" font-size="30">Bend (sweep/90°)</text>
</svg>
