<svg xmlns="http://www.w3.org/2000/svg" font-family="Arial, sans-serif" viewBox="0 0 1620 2435" width="500">
  <defs>
    <pattern id="soffit-hatch" width="40" height="40" patternUnits="userSpaceOnUse" patternTransform="rotate(45)">
      <rect width="40" height="40" fill="#ffff00"/>
      <line x1="0" y1="0" x2="0" y2="40" stroke="#cccc00" stroke-width="8"/>
    </pattern>
    <marker id="arrowhead" markerWidth="6" markerHeight="4" refX="6" refY="2" orient="auto">
      <polygon points="0,0 6,2 0,4" fill="#333"/>
    </marker>
    <marker id="arrowhead-white" markerWidth="6" markerHeight="4" refX="6" refY="2" orient="auto">
      <polygon points="0,0 6,2 0,4" fill="white"/>
    </marker>
  </defs>

  <!-- White background for label area -->
  <rect x="1438" y="0" width="182" height="2435" fill="white"/>

  <!-- Garage: x=0, w=265, h=500 -->
  <rect x="0" y="0" width="265" height="500" fill="#db791e" stroke="#000" stroke-width="4"/>

  <!-- Wall Space: x=265, w=21, h=500 -->
  <rect x="265" y="0" width="21" height="500" fill="#8B6914" stroke="#000" stroke-width="2"/>

  <!-- Office: x=286, w=382, h=500 -->
  <rect x="286" y="0" width="382" height="500" fill="#2a6dbf" stroke="#000" stroke-width="4"/>

  <!-- Office door: x=286, y=500, w=60, h=60 -->
  <rect x="286" y="500" width="60" height="60" fill="#333" stroke="#000" stroke-width="2"/>

  <!-- Dirt below office: x=346, y=500, w=322, h=60 -->
  <rect x="346" y="500" width="322" height="60" fill="#59320e" stroke="#000" stroke-width="2"/>

  <!-- Heat pump on dirt -->
  <rect x="520" y="515" width="78" height="30" fill="white" stroke="#000" stroke-width="2"/>

  <!-- Driveway (L-shape) -->
  <polygon points="0,500 286,500 286,560 668,560 668,1145 286,1145 0,1145"
           fill="#7f7f7f" stroke="#000" stroke-width="2"/>
  <rect x="0" y="1145" width="286" height="80" fill="#7f7f7f" stroke="#000" stroke-width="2"/>

  <!-- Grass: x=668, w=690, h=1145 -->
  <rect x="668" y="0" width="690" height="1145" fill="#3f7f00" stroke="#000" stroke-width="2"/>

  <!-- Horizontal Path: x=668, y=1145, w=690, h=80 -->
  <rect x="668" y="1145" width="690" height="80" fill="#7f7f7f" stroke="#000" stroke-width="2"/>

  <!-- Vertical Path: x=1358, w=80, h=2435 -->
  <rect x="1358" y="0" width="80" height="2435" fill="#7f7f7f" stroke="#000" stroke-width="2"/>

  <!-- Dirt bed around house -->
  <rect x="286" y="1225" width="1072" height="1210" fill="#59320e" stroke="#000" stroke-width="4"/>

  <!-- House soffit (hatched, 40cm overhang) -->
  <rect x="326" y="1265" width="992" height="1130" fill="url(#soffit-hatch)" stroke="#000" stroke-width="3"/>

  <!-- House walls (solid yellow, inner) -->
  <rect x="366" y="1305" width="912" height="1050" fill="#ffff00" stroke="#000" stroke-width="2"/>

  <!-- House heat pump (under soffit, dashed) -->
  <rect x="1218" y="1250" width="60" height="30" fill="white" stroke="#000" stroke-width="2" stroke-dasharray="10,5"/>

  <!-- Fibre box -->
  <rect x="1268" y="2190" width="20" height="40" fill="#000" stroke="#000" stroke-width="2"/>
  <text x="1450" y="2195" text-anchor="start" fill="#333" font-size="30">Fibre Box</text>
  <line x1="1440" y1="2210" x2="1292" y2="2210" stroke="#333" stroke-width="2" marker-end="url(#arrowhead)"/>

  <!-- Office fibre outlet (on wall space wall) -->
  <rect x="281" y="220" width="20" height="40" fill="#000" stroke="#000" stroke-width="2"/>
  <text x="320" y="245" text-anchor="start" fill="white" font-size="24">Fibre Outlet</text>

  <!-- House fibre outlet (below fibre box) -->
  <rect x="1268" y="2250" width="20" height="40" fill="#000" stroke="#000" stroke-width="2"/>
  <text x="1450" y="2275" text-anchor="start" fill="#333" font-size="30">Fibre Outlet</text>
  <line x1="1440" y1="2270" x2="1292" y2="2270" stroke="#333" stroke-width="2" marker-end="url(#arrowhead)"/>

  <!-- Labels -->
  <text x="132" y="260" text-anchor="middle" fill="white" font-weight="bold" font-size="40">Garage</text>
  <text x="275" y="260" text-anchor="middle" fill="white" font-weight="bold" font-size="14"
        transform="rotate(-90,275,260)">Wall Space</text>
  <text x="477" y="160" text-anchor="middle" fill="white" font-weight="bold" font-size="40">Office</text>
  <text x="1013" y="100" text-anchor="middle" fill="white" font-weight="bold" font-size="55">Grass</text>
  <text x="143" y="900" text-anchor="middle" fill="white" font-weight="bold" font-size="35">Driveway</text>
  <text x="1013" y="1195" text-anchor="middle" fill="white" font-weight="bold" font-size="30">Horizontal Path</text>
  <text x="1398" y="1300" text-anchor="middle" fill="white" font-weight="bold" font-size="25"
        transform="rotate(-90,1398,1300)">Vertical Path</text>
  <text x="820" y="1870" text-anchor="middle" fill="#333" font-weight="bold" font-size="60">House</text>
  <text x="470" y="536" text-anchor="middle" fill="white" font-size="18">Dirt</text>
  <text x="400" y="1290" fill="#666" font-size="25">Soffit</text>
  <text x="316" y="536" text-anchor="middle" fill="white" font-size="16">Door</text>

  <!-- Fibre cable route (red dotted line) - follows path/driveway -->
  <path d="
    M 286,240
    L 275,240
    L 275,510
    L 688,510
    L 688,1125
    L 1278,1125
    L 1278,2270
  "
  fill="none" stroke="#e63946" stroke-width="10" stroke-dasharray="25,15"/>

  <!-- Bend markers -->
  <!-- Bend 1 (sweep): House downpipe base → along ground towards path -->
  <circle cx="1278" cy="1225" r="18" fill="none" stroke="#ff6b00" stroke-width="4"/>
  <text x="1278" y="1231" text-anchor="middle" fill="#ff6b00" font-size="18" font-weight="bold">1</text>
  <text x="1310" y="1250" fill="#ff6b00" font-size="18">Sweep</text>

  <!-- Bend 2 (sweep): Under path → turns right onto horizontal path edge -->
  <circle cx="1278" cy="1125" r="18" fill="none" stroke="#ff6b00" stroke-width="4"/>
  <text x="1278" y="1131" text-anchor="middle" fill="#ff6b00" font-size="18" font-weight="bold">2</text>
  <text x="1310" y="1160" fill="#ff6b00" font-size="18">Sweep</text>

  <!-- Bend 3 (sweep): Horizontal path → turns up driveway edge (at pull box) -->
  <circle cx="688" cy="1125" r="18" fill="none" stroke="#ff6b00" stroke-width="4"/>
  <text x="688" y="1131" text-anchor="middle" fill="#ff6b00" font-size="18" font-weight="bold">3</text>
  <text x="720" y="1160" fill="#ff6b00" font-size="18">Sweep</text>

  <!-- Bend 4 (sweep): Driveway edge → turns at office corner to go up wall -->
  <circle cx="668" cy="510" r="18" fill="none" stroke="#ff6b00" stroke-width="4"/>
  <text x="630" y="490" text-anchor="end" fill="#ff6b00" font-size="18">Sweep</text>
  <text x="652" y="490" fill="#ff6b00" font-size="18" font-weight="bold">4</text>

  <!-- Bend 5 (standard 90°): Top of office wall → towards overhang -->
  <circle cx="275" cy="510" r="18" fill="none" stroke="#ff6b00" stroke-width="4"/>
  <text x="275" y="516" text-anchor="middle" fill="#ff6b00" font-size="18" font-weight="bold">5</text>
  <text x="220" y="490" text-anchor="end" fill="#ff6b00" font-size="18">90°</text>

  <!-- Conduit ends at overhang wood, cable goes bare into wall space -->

  <!-- Measurement: Down wall space (270cm) -->
  <line x1="230" y1="240" x2="250" y2="240" stroke="#000" stroke-width="3"/>
  <line x1="240" y1="240" x2="240" y2="510" stroke="#000" stroke-width="3"/>
  <line x1="230" y1="510" x2="250" y2="510" stroke="#000" stroke-width="3"/>
  <text x="225" y="385" text-anchor="end" fill="#000" font-size="22" transform="rotate(-90,225,385)">270cm</text>

  <!-- Measurement: Along office front (393cm) -->
  <line x1="275" y1="555" x2="275" y2="575" stroke="#000" stroke-width="3"/>
  <line x1="275" y1="565" x2="668" y2="565" stroke="#000" stroke-width="3"/>
  <line x1="668" y1="555" x2="668" y2="575" stroke="#000" stroke-width="3"/>
  <text x="471" y="555" text-anchor="middle" fill="#000" font-size="22">393cm</text>

  <!-- Measurement: Down alongside driveway (615cm) -->
  <line x1="700" y1="510" x2="720" y2="510" stroke="#000" stroke-width="3"/>
  <line x1="710" y1="510" x2="710" y2="1125" stroke="#000" stroke-width="3"/>
  <line x1="700" y1="1125" x2="720" y2="1125" stroke="#000" stroke-width="3"/>
  <text x="730" y="820" text-anchor="start" fill="#000" font-size="22" transform="rotate(90,730,820)">615cm</text>

  <!-- Measurement: Along horizontal path (590cm) -->
  <line x1="688" y1="1080" x2="688" y2="1100" stroke="#000" stroke-width="3"/>
  <line x1="688" y1="1090" x2="1278" y2="1090" stroke="#000" stroke-width="3"/>
  <line x1="1278" y1="1080" x2="1278" y2="1100" stroke="#000" stroke-width="3"/>
  <text x="983" y="1080" text-anchor="middle" fill="#000" font-size="22">590cm</text>

  <!-- Measurement: Down to house fibre outlet (1125cm) -->
  <line x1="1245" y1="1145" x2="1265" y2="1145" stroke="#000" stroke-width="3"/>
  <line x1="1255" y1="1145" x2="1255" y2="2270" stroke="#000" stroke-width="3"/>
  <line x1="1245" y1="2270" x2="1265" y2="2270" stroke="#000" stroke-width="3"/>
  <text x="1240" y="1720" text-anchor="end" fill="#000" font-size="22" transform="rotate(-90,1240,1720)">1125cm</text>

  <!-- Pull box at driveway/path corner -->
  <rect x="668" y="1105" width="40" height="40" fill="#e63946" stroke="#000" stroke-width="3" rx="4"/>
  <text x="688" y="1130" text-anchor="middle" fill="white" font-size="14" font-weight="bold">PB</text>
  <text x="620" y="1090" text-anchor="end" fill="#e63946" font-size="22">Pull Box</text>
  <line x1="625" y1="1093" x2="665" y2="1115" stroke="#e63946" stroke-width="2" marker-end="url(#arrowhead)"/>

  <!-- Legend -->
  <rect x="960" y="150" width="350" height="170" rx="10" fill="rgba(0,0,0,0.4)" stroke="none"/>
  <line x1="985" y1="190" x2="1060" y2="190" stroke="#e63946" stroke-width="10" stroke-dasharray="25,15"/>
  <text x="1080" y="200" fill="white" font-size="30">Fibre Cable</text>
  <rect x="985" y="220" width="30" height="30" fill="#e63946" stroke="white" stroke-width="2" rx="4"/>
  <text x="1005" y="242" text-anchor="middle" fill="white" font-size="12" font-weight="bold">PB</text>
  <text x="1080" y="243" fill="white" font-size="30">Pull Box</text>
  <circle cx="1000" cy="280" r="14" fill="none" stroke="#ff6b00" stroke-width="3"/>
  <text x="1000" y="286" text-anchor="middle" fill="#ff6b00" font-size="14" font-weight="bold">N</text>
  <text x="1080" y="290" fill="white" font-size="30">Bend (sweep/90°)</text>
</svg>
