<svg width="700" height="345" viewBox="0 0 700 343" xmlns="http://www.w3.org/2000/svg" font-family="Arial, sans-serif">
  <defs>
    <pattern id="blockwork" width="30" height="15" patternUnits="userSpaceOnUse">
      <rect width="30" height="15" fill="#a0a0a0"/>
      <line x1="0" y1="0" x2="30" y2="0" stroke="#888" stroke-width="0.5"/>
      <line x1="15" y1="0" x2="15" y2="7.5" stroke="#888" stroke-width="0.5"/>
      <line x1="0" y1="7.5" x2="30" y2="7.5" stroke="#888" stroke-width="0.5"/>
      <line x1="0" y1="7.5" x2="0" y2="15" stroke="#888" stroke-width="0.5"/>
      <line x1="30" y1="7.5" x2="30" y2="15" stroke="#888" stroke-width="0.5"/>
    </pattern>
    <pattern id="roller-door" width="700" height="8" patternUnits="userSpaceOnUse">
      <rect width="700" height="8" fill="#d0d0d0"/>
      <line x1="0" y1="7" x2="700" y2="7" stroke="#bbb" stroke-width="1"/>
    </pattern>
    <pattern id="overhang-hatch" width="10" height="10" patternUnits="userSpaceOnUse" patternTransform="rotate(45)">
      <rect width="10" height="10" fill="none"/>
      <line x1="0" y1="0" x2="0" y2="10" stroke="rgba(0,0,0,0.15)" stroke-width="2"/>
    </pattern>
    <marker id="arrow" markerWidth="6" markerHeight="4" refX="6" refY="2" orient="auto">
      <polygon points="0,0 6,2 0,4" fill="#333"/>
    </marker>
    <marker id="arrow-red" markerWidth="6" markerHeight="4" refX="6" refY="2" orient="auto">
      <polygon points="0,0 6,2 0,4" fill="#e63946"/>
    </marker>
  </defs>

  <!-- Sky -->
  <rect width="700" height="400" fill="#87CEEB"/>

  <!-- === CREAM WALL (garage side + above door + soffit over office) === -->
  <rect x="0" y="60" width="670" height="280" fill="#e8e4dc" stroke="none"/>

  <!-- Sky blue right of blockwork -->
  <rect x="670" y="60" width="30" height="280" fill="#87CEEB" stroke="none"/>

  <!-- Garage roller door -->
  <rect x="30" y="120" width="170" height="220" fill="url(#roller-door)" stroke="#999" stroke-width="1"/>

  <!-- === OFFICE (right) === -->
  <!-- Office wall (concrete block) -->
  <rect x="290" y="110" width="380" height="230" fill="url(#blockwork)" stroke="#888" stroke-width="1"/>

  <!-- Cream soffit strip above blockwork -->
  <rect x="290" y="60" width="380" height="50" fill="#e8e4dc" stroke="none"/>

  <!-- === ROOF === -->
  <!-- Roof (slopes up from right to garage peak, then down) -->
  <polygon points="0,70 115,50 700,70 700,80 115,60 0,80" fill="#4a3a2a"/>

  <!-- Sky triangles to cover cream above roof -->
  <polygon points="0,0 0,70 115,50" fill="#87CEEB"/>
  <polygon points="0,0 115,50 700,70 700,0" fill="#87CEEB"/>

  <!-- === DOOR (centre) === -->
  <!-- Door recess/porch -->
  <rect x="230" y="110" width="105" height="230" fill="#2a2a2a"/>

  <!-- Door frame -->
  <rect x="235" y="115" width="95" height="220" fill="#1a1a1a" stroke="#444" stroke-width="1"/>

  <!-- Drain pipe (runs across top of door to end of brickwork) -->
  <rect x="230" y="100" width="440" height="12" fill="#c0c0c0" stroke="#666" stroke-width="1.5"/>
  <!-- Downpipe going up from drain pipe on right side of door to roof -->
  <rect x="340" y="68" width="10" height="32" fill="#c0c0c0" stroke="#666" stroke-width="1"/>
  <!-- Pipe brackets -->
  <rect x="380" y="98" width="6" height="16" fill="#333"/>
  <rect x="500" y="98" width="6" height="16" fill="#333"/>
  <rect x="620" y="98" width="6" height="16" fill="#333"/>
  <!-- Drain pipe label -->
  <text x="450" y="110" text-anchor="middle" fill="#333" font-size="9">Water Drainage</text>

  <!-- Door handle -->
  <rect x="318" y="220" width="4" height="15" fill="#888"/>

  <!-- === HEAT PUMP PIPE (from top of heat pump up the wall) === -->
  <rect x="582" y="140" width="8" height="145" fill="#c0c0c0" stroke="#999" stroke-width="0.5"/>
  <!-- Box at top of pipe -->
  <rect x="578" y="130" width="16" height="14" fill="#c0c0c0" stroke="#999" stroke-width="1"/>

  <!-- === HEAT PUMP === -->
  <rect x="520" y="285" width="80" height="55" fill="#e0e0e0" stroke="#aaa" stroke-width="1" rx="3"/>
  <text x="560" y="316" text-anchor="middle" fill="#333" font-size="9" font-weight="bold">Heat Pump</text>
  <!-- Heat pump stand -->
  <rect x="525" y="335" width="10" height="8" fill="#999"/>
  <rect x="585" y="335" width="10" height="8" fill="#999"/>

  <!-- === LABELS === -->
  <text x="115" y="200" text-anchor="middle" fill="#666" font-weight="bold" font-size="14">Garage</text>
  <text x="282" y="220" text-anchor="middle" fill="white" font-size="10">Door</text>
  <text x="480" y="200" text-anchor="middle" fill="#555" font-weight="bold" font-size="14">Office</text>
  <text x="589" y="192" text-anchor="middle" fill="#777" font-size="9" transform="rotate(-90,589,192)">HP Pipe</text>

  <!-- Ethernet conduit path (red dotted line) -->
  <path d="
    M 670,340
    L 576,340
    L 576,106
    L 345,106
    L 345,84
    L 215,84
  "
  fill="none" stroke="#e63946" stroke-width="3" stroke-dasharray="8,5"/>

  <!-- "Into wall space" label (in sky, pointing down) -->
  <text x="300" y="50" text-anchor="middle" fill="#e63946" font-size="8">Into wall space</text>
  <line x1="335" y1="55" x2="335" y2="80" stroke="#e63946" stroke-width="1" marker-end="url(#arrow-red)"/>

  <!-- "Behind heatpump" label -->
  <text x="640" y="310" fill="#e63946" font-size="9">Behind</text>
  <text x="640" y="320" fill="#e63946" font-size="9">Heat Pump</text>
  <line x1="630" y1="315" x2="580" y2="315" stroke="#e63946" stroke-width="1" marker-end="url(#arrow-red)"/>

  <!-- Legend (top right in sky) -->
  <rect x="540" y="15" width="140" height="42" rx="4" fill="rgba(0,0,0,0.4)" stroke="none"/>
  <line x1="550" y1="28" x2="580" y2="28" stroke="#e63946" stroke-width="3" stroke-dasharray="8,5"/>
  <text x="587" y="32" fill="white" font-size="9">Ethernet Conduit</text>
  <rect x="550" y="39" width="30" height="10" fill="url(#overhang-hatch)" stroke="white" stroke-width="0.5"/>
  <text x="587" y="48" fill="white" font-size="9">Roof overhang</text>
  <!-- Overhang hatch overlay (above door area only) -->
  <rect x="230" y="60" width="105" height="40" fill="url(#overhang-hatch)"/>

</svg>
