<svg width="700" height="345" viewBox="0 0 700 343" xmlns="http://www.w3.org/2000/svg" font-family="Arial, sans-serif">
  <defs>
    <pattern id="blockwork" width="30" height="15" patternUnits="userSpaceOnUse">
      <rect width="30" height="15" fill="#a0a0a0"/>
      <line x1="0" y1="0" x2="30" y2="0" stroke="#888" stroke-width="0.5"/>
      <line x1="15" y1="0" x2="15" y2="7.5" stroke="#888" stroke-width="0.5"/>
      <line x1="0" y1="7.5" x2="30" y2="7.5" stroke="#888" stroke-width="0.5"/>
      <line x1="0" y1="7.5" x2="0" y2="15" stroke="#888" stroke-width="0.5"/>
      <line x1="30" y1="7.5" x2="30" y2="15" stroke="#888" stroke-width="0.5"/>
    </pattern>
    <pattern id="roller-door" width="700" height="8" patternUnits="userSpaceOnUse">
      <rect width="700" height="8" fill="#d0d0d0"/>
      <line x1="0" y1="7" x2="700" y2="7" stroke="#bbb" stroke-width="1"/>
    </pattern>
  </defs>

  <!-- Sky -->
  <rect width="700" height="400" fill="#dde4ea"/>

  <!-- === CREAM WALL (garage side + above door + soffit over office) === -->
  <rect x="0" y="50" width="700" height="290" fill="#e8e4dc" stroke="none"/>

  <!-- Garage roller door -->
  <rect x="30" y="120" width="170" height="220" fill="url(#roller-door)" stroke="#999" stroke-width="1"/>

  <!-- === OFFICE (right) === -->
  <!-- Office wall (concrete block) -->
  <rect x="290" y="80" width="380" height="260" fill="url(#blockwork)" stroke="#888" stroke-width="1"/>

  <!-- === ROOF === -->
  <!-- Roof (slopes up from right to garage peak, then down) -->
  <polygon points="0,70 115,50 700,70 700,80 115,60 0,80" fill="#4a3a2a"/>

  <!-- === DOOR (centre) === -->
  <!-- Door recess/porch -->
  <rect x="230" y="95" width="105" height="245" fill="#2a2a2a"/>

  <!-- Door frame -->
  <rect x="235" y="100" width="95" height="235" fill="#1a1a1a" stroke="#444" stroke-width="1"/>

  <!-- Door handle -->
  <rect x="318" y="220" width="4" height="15" fill="#888"/>

  <!-- === HEAT PUMP PIPE (from top of heat pump up the wall) === -->
  <rect x="582" y="100" width="8" height="185" fill="#e8e4dc" stroke="#ccc" stroke-width="0.5"/>

  <!-- === HEAT PUMP === -->
  <rect x="520" y="285" width="80" height="55" fill="#e0e0e0" stroke="#aaa" stroke-width="1" rx="3"/>
  <text x="560" y="316" text-anchor="middle" fill="#333" font-size="9" font-weight="bold">Heat Pump</text>
  <!-- Heat pump stand -->
  <rect x="525" y="335" width="10" height="8" fill="#999"/>
  <rect x="585" y="335" width="10" height="8" fill="#999"/>

  <!-- === LABELS === -->
  <text x="115" y="200" text-anchor="middle" fill="#666" font-weight="bold" font-size="14">Garage</text>
  <text x="282" y="220" text-anchor="middle" fill="white" font-size="10">Door</text>
  <text x="480" y="200" text-anchor="middle" fill="#555" font-weight="bold" font-size="14">Office</text>
  <text x="589" y="192" text-anchor="middle" fill="#777" font-size="9" transform="rotate(-90,589,192)">HP Pipe</text>
</svg>
