<svg xmlns="http://www.w3.org/2000/svg" font-family="Arial, sans-serif" viewBox="0 0 688 310" width="700">
  <defs>
    <pattern id="blockwork" width="30" height="15" patternUnits="userSpaceOnUse">
      <rect width="30" height="15" fill="#a0a0a0"/>
      <line x1="0" y1="0" x2="30" y2="0" stroke="#888" stroke-width="0.5"/>
      <line x1="15" y1="0" x2="15" y2="7.5" stroke="#888" stroke-width="0.5"/>
      <line x1="0" y1="7.5" x2="30" y2="7.5" stroke="#888" stroke-width="0.5"/>
      <line x1="0" y1="7.5" x2="0" y2="15" stroke="#888" stroke-width="0.5"/>
      <line x1="30" y1="7.5" x2="30" y2="15" stroke="#888" stroke-width="0.5"/>
    </pattern>
    <pattern id="roller-door" width="668" height="8" patternUnits="userSpaceOnUse">
      <rect width="668" height="8" fill="#d0d0d0"/>
      <line x1="0" y1="7" x2="668" y2="7" stroke="#bbb" stroke-width="1"/>
    </pattern>
    <pattern id="overhang-hatch" width="10" height="10" patternUnits="userSpaceOnUse" patternTransform="rotate(45)">
      <rect width="10" height="10" fill="none"/>
      <line x1="0" y1="0" x2="0" y2="10" stroke="rgba(0,0,0,0.15)" stroke-width="2"/>
    </pattern>
    <marker id="arrow-red" markerWidth="6" markerHeight="4" refX="6" refY="2" orient="auto">
      <polygon points="0,0 6,2 0,4" fill="#e63946"/>
    </marker>
  </defs>

  <!-- Sky -->
  <rect width="688" height="310" fill="#87CEEB"/>

  <!-- Cream wall background (garage + gap left of door + soffit area) -->
  <rect x="0" y="40" width="418" height="245" fill="#e8e4dc" stroke="none"/>

  <!-- Cream soffit strip above office blockwork -->
  <rect x="403" y="40" width="265" height="45" fill="#e8e4dc" stroke="none"/>

  <!-- Garage roller door -->
  <rect x="10" y="80" width="245" height="205" fill="url(#roller-door)" stroke="#999" stroke-width="1"/>

  <!-- Office blockwork (right of door space) -->
  <rect x="403" y="85" width="265" height="200" fill="url(#blockwork)" stroke="#888" stroke-width="1"/>

  <!-- Roof/fascia -->
  <polygon points="0,38 132,30 668,38 668,44 132,36 0,44" fill="#4a3a2a"/>

  <!-- Sky triangles above roof -->
  <polygon points="0,0 0,38 132,30" fill="#87CEEB"/>
  <polygon points="132,30 668,38 668,0 0,0" fill="#87CEEB"/>

  <!-- Door space (stops at water pipe) -->
  <rect x="298" y="80" width="105" height="205" fill="#2a2a2a"/>
  <rect x="301" y="83" width="99" height="199" fill="#1a1a1a" stroke="#444" stroke-width="1"/>

  <!-- Door handle -->
  <rect x="390" y="160" width="3" height="12" fill="#888"/>

  <!-- Water drainage pipe -->
  <rect x="298" y="80" width="370" height="8" fill="#c0c0c0" stroke="#666" stroke-width="1"/>
  <!-- Pipe brackets -->
  <rect x="400" y="79" width="4" height="10" fill="#333"/>
  <rect x="480" y="79" width="4" height="10" fill="#333"/>
  <rect x="560" y="79" width="4" height="10" fill="#333"/>
  <!-- Pipe label -->
  <text x="470" y="87" text-anchor="middle" fill="#333" font-size="6">Water Drainage</text>

  <!-- Downpipe -->
  <rect x="428" y="55" width="10" height="25" fill="#c0c0c0" stroke="#666" stroke-width="1"/>

  <!-- HP Pipe (73cm from right corner) -->
  <rect x="591" y="80" width="8" height="205" fill="#c0c0c0" stroke="#999" stroke-width="0.5"/>
  <!-- Box at top of HP pipe -->
  <rect x="588" y="72" width="14" height="12" fill="#c0c0c0" stroke="#999" stroke-width="1"/>

  <!-- Heat pump (63cm from right corner) -->
  <rect x="527" y="240" width="78" height="45" fill="#e0e0e0" stroke="#aaa" stroke-width="1" rx="2"/>
  <text x="566" y="266" text-anchor="middle" fill="#333" font-size="7" font-weight="bold">Heat Pump</text>

  <!-- Overhang hatch (above door space only) -->
  <rect x="298" y="44" width="120" height="36" fill="url(#overhang-hatch)" stroke="rgba(0,0,0,0.15)" stroke-width="1"/>

  <!-- Labels removed for clarity, see layout diagram -->

  <!-- Ethernet conduit path (red dotted line) -->
  <!-- From right corner ground, straight up to water pipe, along pipe, up downpipe, into wall space -->
  <path d="
    M 668,285
    L 668,84
    L 433,84
    L 433,62
    L 286,62
  "
  fill="none" stroke="#e63946" stroke-width="2" stroke-dasharray="6,4"/>

  <!-- "Goes back into the wallspace" label -->
  <text x="286" y="22" text-anchor="middle" fill="#e63946" font-size="6">Goes back into</text>
  <text x="286" y="29" text-anchor="middle" fill="#e63946" font-size="6">the wall space</text>
  <line x1="286" y1="31" x2="286" y2="58" stroke="#e63946" stroke-width="1" marker-end="url(#arrow-red)"/>

  <!-- "Into wall space" label -->
  <text x="418" y="22" text-anchor="middle" fill="#e63946" font-size="6">Into wall space</text>
  <line x1="418" y1="24" x2="418" y2="58" stroke="#e63946" stroke-width="1" marker-end="url(#arrow-red)"/>

  <!-- "Up office corner" label -->
  <text x="640" y="180" fill="#e63946" font-size="6">Up office</text>
  <text x="640" y="187" fill="#e63946" font-size="6">corner</text>
  <line x1="635" y1="183" x2="672" y2="183" stroke="#e63946" stroke-width="1" marker-end="url(#arrow-red)"/>

  <!-- Legend -->
  <rect x="520" y="5" width="150" height="30" rx="3" fill="rgba(0,0,0,0.4)" stroke="none"/>
  <line x1="528" y1="14" x2="548" y2="14" stroke="#e63946" stroke-width="2" stroke-dasharray="6,4"/>
  <text x="555" y="17" fill="white" font-size="6">Ethernet Conduit</text>
  <rect x="528" y="22" width="20" height="8" fill="url(#overhang-hatch)" stroke="white" stroke-width="0.5"/>
  <text x="555" y="29" fill="white" font-size="6">Roof overhang</text>

  <!-- White strip at bottom for measurement -->
  <rect x="0" y="285" width="688" height="25" fill="white"/>

  <!-- 1) Up office corner (200cm) - right of line -->
  <line x1="675" y1="84" x2="679" y2="84" stroke="#000" stroke-width="1"/>
  <line x1="677" y1="84" x2="677" y2="285" stroke="#000" stroke-width="1"/>
  <line x1="675" y1="285" x2="679" y2="285" stroke="#000" stroke-width="1"/>
  <text x="683" y="185" text-anchor="start" fill="#000" font-size="5" transform="rotate(-90,683,185)">200cm</text>

  <!-- 2) Horizontal along water pipe (155cm) - below inline -->
  <line x1="433" y1="92" x2="433" y2="96" stroke="#000" stroke-width="1"/>
  <line x1="433" y1="94" x2="668" y2="94" stroke="#000" stroke-width="1"/>
  <line x1="668" y1="92" x2="668" y2="96" stroke="#000" stroke-width="1"/>
  <text x="550" y="101" text-anchor="middle" fill="#000" font-size="5">155cm</text>

  <!-- 3) Up downpipe (22cm) - right of line -->
  <line x1="440" y1="62" x2="444" y2="62" stroke="#000" stroke-width="1"/>
  <line x1="442" y1="62" x2="442" y2="84" stroke="#000" stroke-width="1"/>
  <line x1="440" y1="84" x2="444" y2="84" stroke="#000" stroke-width="1"/>
  <text x="450" y="76" text-anchor="start" fill="#000" font-size="5">22cm</text>
</svg>
