<svg xmlns="http://www.w3.org/2000/svg" font-family="Arial, sans-serif" viewBox="0 0 688 285" width="700">
  <defs>
    <pattern id="blockwork" width="30" height="15" patternUnits="userSpaceOnUse">
      <rect width="30" height="15" fill="#a0a0a0"/>
      <line x1="0" y1="0" x2="30" y2="0" stroke="#888" stroke-width="0.5"/>
      <line x1="15" y1="0" x2="15" y2="7.5" stroke="#888" stroke-width="0.5"/>
      <line x1="0" y1="7.5" x2="30" y2="7.5" stroke="#888" stroke-width="0.5"/>
      <line x1="0" y1="7.5" x2="0" y2="15" stroke="#888" stroke-width="0.5"/>
      <line x1="30" y1="7.5" x2="30" y2="15" stroke="#888" stroke-width="0.5"/>
    </pattern>
    <pattern id="roller-door" width="668" height="8" patternUnits="userSpaceOnUse">
      <rect width="668" height="8" fill="#d0d0d0"/>
      <line x1="0" y1="7" x2="668" y2="7" stroke="#bbb" stroke-width="1"/>
    </pattern>
    <pattern id="overhang-hatch" width="10" height="10" patternUnits="userSpaceOnUse" patternTransform="rotate(45)">
      <rect width="10" height="10" fill="none"/>
      <line x1="0" y1="0" x2="0" y2="10" stroke="rgba(0,0,0,0.15)" stroke-width="2"/>
    </pattern>
  </defs>

  <!-- Sky -->
  <rect width="688" height="310" fill="#87CEEB"/>

  <!-- Cream wall background (garage + wall space + soffit area) -->
  <rect x="0" y="40" width="337" height="245" fill="#e8e4dc" stroke="none"/>

  <!-- Cream soffit strip above office blockwork -->
  <rect x="337" y="40" width="331" height="45" fill="#e8e4dc" stroke="none"/>

  <!-- Garage roller door: x=320-260=60 -->
  <rect x="60" y="80" width="260" height="205" fill="url(#roller-door)" stroke="#999" stroke-width="1"/>

  <!-- Office blockwork (right of door space): x=668-227=441 -->
  <rect x="441" y="85" width="227" height="200" fill="url(#blockwork)" stroke="#888" stroke-width="1"/>

  <!-- Roof/fascia -->
  <polygon points="0,38 132,30 668,38 668,44 132,36 0,44" fill="#4a3a2a"/>

  <!-- Sky triangles above roof -->
  <polygon points="0,0 0,38 132,30" fill="#87CEEB"/>
  <polygon points="132,30 668,38 668,0 0,0" fill="#87CEEB"/>

  <!-- Door space: x=441-104=337 -->
  <rect x="337" y="80" width="104" height="205" fill="#2a2a2a"/>
  <rect x="340" y="83" width="98" height="199" fill="#1a1a1a" stroke="#444" stroke-width="1"/>

  <!-- Door handle -->
  <rect x="425" y="160" width="3" height="12" fill="#888"/>

  <!-- Water drainage pipe: from door left edge across to office corner -->
  <rect x="337" y="80" width="331" height="8" fill="#c0c0c0" stroke="#666" stroke-width="1"/>
  <!-- Pipe brackets -->
  <rect x="440" y="79" width="4" height="10" fill="#333"/>
  <rect x="520" y="79" width="4" height="10" fill="#333"/>
  <rect x="600" y="79" width="4" height="10" fill="#333"/>
  <!-- Pipe label -->
  <text x="470" y="87" text-anchor="middle" fill="#333" font-size="6">Water Drainage</text>

  <!-- Downpipe: above door area -->
  <rect x="460" y="55" width="10" height="25" fill="#c0c0c0" stroke="#666" stroke-width="1"/>

  <!-- HP Pipe (72cm from right corner): x=668-72=596 -->
  <rect x="596" y="80" width="8" height="205" fill="#c0c0c0" stroke="#999" stroke-width="0.5"/>
  <!-- Box at top of HP pipe -->
  <rect x="593" y="72" width="14" height="12" fill="#c0c0c0" stroke="#999" stroke-width="1"/>

  <!-- Heat pump (62cm from right corner): right edge at x=668-62=606, left at 606-78=528 -->
  <rect x="528" y="240" width="78" height="45" fill="#e0e0e0" stroke="#aaa" stroke-width="1" rx="2"/>
  <text x="567" y="266" text-anchor="middle" fill="#333" font-size="7" font-weight="bold">Heat Pump</text>

  <!-- Overhang hatch (above door space only) -->
  <rect x="337" y="44" width="120" height="36" fill="url(#overhang-hatch)" stroke="rgba(0,0,0,0.15)" stroke-width="1"/>

  <!-- Labels -->
  <text x="132" y="190" text-anchor="middle" fill="#666" font-weight="bold" font-size="14">Garage</text>
  <text x="362" y="180" text-anchor="middle" fill="white" font-size="8">Door</text>
  <text x="555" y="180" text-anchor="middle" fill="#555" font-weight="bold" font-size="14">Office</text>
  <text x="600" y="185" text-anchor="middle" fill="#777" font-size="6" transform="rotate(-90,600,185)">HP Pipe</text>

  <!-- Legend -->
  <rect x="540" y="5" width="120" height="20" rx="3" fill="rgba(0,0,0,0.4)" stroke="none"/>
  <rect x="548" y="9" width="20" height="8" fill="url(#overhang-hatch)" stroke="white" stroke-width="0.5"/>
  <text x="574" y="17" fill="white" font-size="6">Roof overhang</text>
</svg>
