<svg width="554" height="650" viewBox="7 0 540 650" xmlns="http://www.w3.org/2000/svg" font-family="Arial, sans-serif">
  <defs>
    <pattern id="soffit-hatch" width="8" height="8" patternUnits="userSpaceOnUse" patternTransform="rotate(45)">
      <rect width="8" height="8" fill="#ffff00"/>
      <line x1="0" y1="0" x2="0" y2="8" stroke="#cccc00" stroke-width="2"/>
    </pattern>
    <marker id="arrowhead" markerWidth="6" markerHeight="4" refX="6" refY="2" orient="auto">
      <polygon points="0,0 6,2 0,4" fill="#333"/>
    </marker>
  </defs>

  <!-- No background -->

  <!-- Grass (green, top right) -->
  <rect x="215" y="1" width="329" height="274" fill="#3f7f00" stroke="#000" stroke-width="1"/>

  <!-- Driveway + front of office area (grey, combined polygon) -->
  <polygon points="9,165 109,165 109,175 215,175 215,314 109,314 109,648 9,648"
           fill="#7f7f7f" stroke="#000" stroke-width="1"/>

  <!-- Horizontal footpath (grey) -->
  <rect x="215" y="275" width="329" height="39" fill="#7f7f7f" stroke="#000" stroke-width="1"/>

  <!-- Vertical footpath (grey) -->
  <rect x="500" y="314" width="44" height="152" fill="#7f7f7f" stroke="#000" stroke-width="1"/>

  <!-- Office door -->
  <rect x="109" y="165" width="25" height="10" fill="#333" stroke="#000" stroke-width="1"/>
  <text x="121" y="173" text-anchor="middle" fill="white" font-size="7">Door</text>

  <!-- Dirt (brown, below office) -->
  <rect x="134" y="165" width="81" height="10" fill="#59320e" stroke="#000" stroke-width="1"/>

  <!-- Dirt (brown, right of house) -->
  <rect x="474" y="314" width="26" height="152" fill="#59320e" stroke="#000" stroke-width="1"/>

  <!-- House soffit (hatched yellow, outer) -->
  <rect x="109" y="314" width="365" height="334" fill="url(#soffit-hatch)" stroke="#000" stroke-width="2"/>

  <!-- House walls (solid yellow, inner) -->
  <rect x="124" y="329" width="335" height="304" fill="#ffff00" stroke="#000" stroke-width="1"/>

  <!-- Garage (orange) -->
  <rect x="9" y="1" width="93" height="164" fill="#db791e" stroke="#000" stroke-width="2"/>

  <!-- Wall space between garage and office -->
  <rect x="102" y="1" width="14" height="164" fill="#8B6914" stroke="#000" stroke-width="1"/>

  <!-- Office (red) -->
  <rect x="116" y="1" width="99" height="164" fill="#2a6dbf" stroke="#000" stroke-width="2"/>

  <!-- Labels -->
  <text x="55" y="90" text-anchor="middle" fill="white" font-weight="bold" font-size="16">Garage</text>
  <text x="109" y="90" text-anchor="middle" fill="white" font-weight="bold" font-size="7"
        transform="rotate(-90,109,90)">Wall Space</text>
  <text x="165" y="90" text-anchor="middle" fill="white" font-weight="bold" font-size="16">Office</text>
  <text x="380" y="140" text-anchor="middle" fill="white" font-weight="bold" font-size="20">Grass</text>
  <text x="59" y="420" text-anchor="middle" fill="white" font-weight="bold" font-size="14">Driveway</text>
  <text x="380" y="298" text-anchor="middle" fill="white" font-weight="bold" font-size="13">Footpath</text>
  <text x="522" y="400" text-anchor="middle" fill="white" font-weight="bold" font-size="12"
        transform="rotate(-90,522,400)">Footpath</text>
  <text x="292" y="490" text-anchor="middle" fill="#333" font-weight="bold" font-size="22">House</text>
  <text x="174" y="173" text-anchor="middle" fill="white" font-size="8">Dirt</text>
  <text x="487" y="395" text-anchor="middle" fill="white" font-size="10"
        transform="rotate(-90,487,395)">Dirt</text>
  <text x="160" y="323" fill="#666" font-size="9">Soffit</text>

  <!-- Fibre box (on right wall, 1/5 up from bottom) -->
  <rect x="455" y="566" width="8" height="14" fill="#000" stroke="#000" stroke-width="1"/>
  <text x="420" y="576" text-anchor="end" fill="#333" font-size="11">Fibre Box</text>
  <line x1="422" y1="573" x2="453" y2="573" stroke="#333" stroke-width="1" marker-end="url(#arrowhead)"/>
</svg>
