<svg xmlns="http://www.w3.org/2000/svg" font-family="Arial, sans-serif" viewBox="0 0 1700 2525" width="500">
  <defs>
    <pattern id="soffit-hatch" width="40" height="40" patternUnits="userSpaceOnUse" patternTransform="rotate(45)">
      <rect width="40" height="40" fill="#ffff00"/>
      <line x1="0" y1="0" x2="0" y2="40" stroke="#cccc00" stroke-width="8"/>
    </pattern>
    <marker id="arrowhead" markerWidth="6" markerHeight="4" refX="6" refY="2" orient="auto">
      <polygon points="0,0 6,2 0,4" fill="#333"/>
    </marker>
    <marker id="arrowhead-white" markerWidth="6" markerHeight="4" refX="6" refY="2" orient="auto">
      <polygon points="0,0 6,2 0,4" fill="white"/>
    </marker>
  </defs>

  <!-- White background for label area -->
  <rect x="1541" y="0" width="159" height="2525" fill="white"/>

  <!-- Garage: x=26 (offset from driveway), w=373, h=500 -->
  <rect x="26" y="0" width="373" height="500" fill="#db791e" stroke="#000" stroke-width="4"/>

  <!-- Wall Space: x=399, w=17, h=500 -->
  <rect x="399" y="0" width="17" height="500" fill="#8B6914" stroke="#000" stroke-width="2"/>

  <!-- Office: x=416, w=365, h=500 -->
  <rect x="416" y="0" width="365" height="500" fill="#2a6dbf" stroke="#000" stroke-width="4"/>

  <!-- Office door: x=416, y=500, w=60, h=78 -->
  <rect x="416" y="500" width="60" height="78" fill="#333" stroke="#000" stroke-width="2"/>

  <!-- Dirt below office: x=476, y=500, w=305, h=78 -->
  <rect x="476" y="500" width="305" height="78" fill="#59320e" stroke="#000" stroke-width="2"/>

  <!-- Heat pump on dirt: 78cm wide -->
  <rect x="630" y="515" width="78" height="30" fill="white" stroke="#000" stroke-width="2"/>

  <!-- Driveway (L-shape: below garage + horizontal in front of office, then vertical to bottom) -->
  <!-- Horizontal part: from garage bottom across to near office corner -->
  <polygon points="0,500 416,500 416,578 781,578 781,1197 301,1197 0,1197"
           fill="#7f7f7f" stroke="#000" stroke-width="2"/>
  <!-- Driveway vertical continues below h-path to bottom of diagram -->
  <rect x="0" y="1197" width="301" height="1328" fill="#7f7f7f" stroke="#000" stroke-width="2"/>

  <!-- Grass: x=781, w=680, h=619 (between office dirt and h-path) -->
  <rect x="781" y="578" width="680" height="619" fill="#3f7f00" stroke="#000" stroke-width="2"/>

  <!-- Grass above office level (fills gap between office right edge and vertical path) -->
  <rect x="781" y="0" width="680" height="578" fill="#3f7f00" stroke="#000" stroke-width="2"/>

  <!-- Horizontal Path: x=301, y=1197, w=1160 (driveway right edge to vertical path) h=80 -->
  <rect x="301" y="1197" width="1160" height="80" fill="#7f7f7f" stroke="#000" stroke-width="2"/>

  <!-- Vertical Path: x=1461, w=80, h=2525 (full height) -->
  <rect x="1461" y="0" width="80" height="2525" fill="#7f7f7f" stroke="#000" stroke-width="2"/>

  <!-- House dirt bed: top (80cm) and right (80cm) only -->
  <!-- Top dirt: y=1277 to y=1357 -->
  <rect x="301" y="1277" width="1160" height="80" fill="#59320e" stroke="#000" stroke-width="2"/>
  <!-- Right dirt: x=1381 to x=1461 -->
  <rect x="1381" y="1277" width="80" height="1248" fill="#59320e" stroke="#000" stroke-width="2"/>

  <!-- House soffit (hatched, 50cm within dirt bed, 30cm inset from outer edge): top and right -->
  <!-- Top soffit: y=1307 to y=1357 (30cm gap from path) -->
  <rect x="301" y="1307" width="1080" height="50" fill="url(#soffit-hatch)" stroke="#000" stroke-width="2"/>
  <!-- Right soffit: x=1381 to x=1431 (30cm gap from vertical path) -->
  <rect x="1381" y="1307" width="50" height="1218" fill="url(#soffit-hatch)" stroke="#000" stroke-width="2"/>

  <!-- House walls (solid yellow): inset from soffit -->
  <rect x="301" y="1357" width="1080" height="1168" fill="#ffff00" stroke="#000" stroke-width="2"/>

  <!-- House heat pump (under soffit, top-right corner, dashed) -->
  <rect x="1330" y="1300" width="60" height="30" fill="white" stroke="#000" stroke-width="2" stroke-dasharray="10,5"/>

  <!-- Fibre box (right wall, near bottom) -->
  <rect x="1371" y="2300" width="20" height="40" fill="#000" stroke="#000" stroke-width="2"/>
  <text x="1555" y="2325" text-anchor="start" fill="#333" font-size="30">Fibre Box</text>
  <line x1="1545" y1="2320" x2="1395" y2="2320" stroke="#333" stroke-width="2" marker-end="url(#arrowhead)"/>

  <!-- Labels -->
  <text x="212" y="260" text-anchor="middle" fill="white" font-weight="bold" font-size="40">Garage</text>
  <text x="408" y="260" text-anchor="middle" fill="white" font-weight="bold" font-size="14"
        transform="rotate(-90,408,260)">Wall Space</text>
  <text x="598" y="260" text-anchor="middle" fill="white" font-weight="bold" font-size="40">Office</text>
  <text x="1121" y="400" text-anchor="middle" fill="white" font-weight="bold" font-size="55">Grass</text>
  <text x="150" y="900" text-anchor="middle" fill="white" font-weight="bold" font-size="35">Driveway</text>
  <text x="1121" y="1247" text-anchor="middle" fill="white" font-weight="bold" font-size="30">Horizontal Path</text>
  <text x="1501" y="1400" text-anchor="middle" fill="white" font-weight="bold" font-size="25"
        transform="rotate(-90,1501,1400)">Vertical Path</text>
  <text x="841" y="1970" text-anchor="middle" fill="#333" font-weight="bold" font-size="60">House</text>
  <text x="580" y="545" text-anchor="middle" fill="white" font-size="18">Dirt</text>
  <text x="400" y="1340" fill="#666" font-size="25">Soffit</text>
  <text x="446" y="545" text-anchor="middle" fill="white" font-size="16">Door</text>

  <!-- Heat pump label (driveway, pointing up at office one) -->
  <text x="560" y="660" fill="white" font-size="22">Heat Pump</text>
  <line x1="669" y1="640" x2="669" y2="550" stroke="white" stroke-width="2" marker-end="url(#arrowhead-white)"/>

  <!-- Heat pump label (grass, pointing down at house one) -->
  <text x="1200" y="1150" fill="white" font-size="22">Heat Pump</text>
  <line x1="1360" y1="1160" x2="1360" y2="1288" stroke="white" stroke-width="2" marker-end="url(#arrowhead-white)"/>
</svg>
