<svg xmlns="http://www.w3.org/2000/svg" font-family="Arial, sans-serif" viewBox="0 0 1700 2435" width="500">
  <defs>
    <pattern id="soffit-hatch" width="40" height="40" patternUnits="userSpaceOnUse" patternTransform="rotate(45)">
      <rect width="40" height="40" fill="#ffff00"/>
      <line x1="0" y1="0" x2="0" y2="40" stroke="#cccc00" stroke-width="8"/>
    </pattern>
    <marker id="arrowhead" markerWidth="6" markerHeight="4" refX="6" refY="2" orient="auto">
      <polygon points="0,0 6,2 0,4" fill="#333"/>
    </marker>
    <marker id="arrowhead-white" markerWidth="6" markerHeight="4" refX="6" refY="2" orient="auto">
      <polygon points="0,0 6,2 0,4" fill="white"/>
    </marker>
  </defs>

  <!-- White background for label area -->
  <rect x="1525" y="0" width="175" height="2435" fill="white"/>

  <!-- Garage: 365x500 -->
  <rect x="0" y="0" width="365" height="500" fill="#db791e" stroke="#000" stroke-width="4"/>

  <!-- Wall Space: 25x500 -->
  <rect x="365" y="0" width="25" height="500" fill="#8B6914" stroke="#000" stroke-width="2"/>

  <!-- Office: 365x500 -->
  <rect x="390" y="0" width="365" height="500" fill="#2a6dbf" stroke="#000" stroke-width="4"/>

  <!-- Office door -->
  <rect x="390" y="500" width="60" height="60" fill="#333" stroke="#000" stroke-width="2"/>

  <!-- Dirt below office -->
  <rect x="450" y="500" width="305" height="60" fill="#59320e" stroke="#000" stroke-width="2"/>

  <!-- Heat pump -->
  <rect x="625" y="515" width="60" height="30" fill="white" stroke="#000" stroke-width="2"/>

  <!-- Driveway (L-shape: below garage + in front of office) -->
  <polygon points="0,500 390,500 390,560 755,560 755,1145 390,1145 0,1145"
           fill="#7f7f7f" stroke="#000" stroke-width="2"/>
  <!-- Driveway continues below -->
  <rect x="0" y="1145" width="390" height="80" fill="#7f7f7f" stroke="#000" stroke-width="2"/>

  <!-- Grass: 690x1145 -->
  <rect x="755" y="0" width="690" height="1145" fill="#3f7f00" stroke="#000" stroke-width="2"/>

  <!-- Horizontal Path: 690x80 -->
  <rect x="755" y="1145" width="690" height="80" fill="#7f7f7f" stroke="#000" stroke-width="2"/>

  <!-- Vertical Path: 80x2435 -->
  <rect x="1445" y="0" width="80" height="2435" fill="#7f7f7f" stroke="#000" stroke-width="2"/>

  <!-- House soffit (hatched, outer): 1055x1210 -->
  <rect x="390" y="1225" width="1055" height="1210" fill="url(#soffit-hatch)" stroke="#000" stroke-width="4"/>

  <!-- House walls (solid yellow, inner): inset 60cm for soffit -->
  <rect x="450" y="1285" width="935" height="1090" fill="#ffff00" stroke="#000" stroke-width="2"/>

  <!-- House heat pump (under soffit, top-right corner) -->
  <rect x="1325" y="1240" width="60" height="30" fill="white" stroke="#000" stroke-width="2" stroke-dasharray="10,5"/>

  <!-- Fibre box (right wall, 1/5 up from bottom) -->
  <rect x="1375" y="2190" width="20" height="40" fill="#000" stroke="#000" stroke-width="2"/>
  <text x="1540" y="2215" text-anchor="start" fill="#333" font-size="30">Fibre Box</text>
  <line x1="1530" y1="2210" x2="1400" y2="2210" stroke="#333" stroke-width="2" marker-end="url(#arrowhead)"/>

  <!-- Labels -->
  <text x="182" y="260" text-anchor="middle" fill="white" font-weight="bold" font-size="45">Garage</text>
  <text x="377" y="260" text-anchor="middle" fill="white" font-weight="bold" font-size="18"
        transform="rotate(-90,377,260)">Wall Space</text>
  <text x="572" y="260" text-anchor="middle" fill="white" font-weight="bold" font-size="45">Office</text>
  <text x="1100" y="400" text-anchor="middle" fill="white" font-weight="bold" font-size="55">Grass</text>
  <text x="195" y="900" text-anchor="middle" fill="white" font-weight="bold" font-size="40">Driveway</text>
  <text x="1100" y="1195" text-anchor="middle" fill="white" font-weight="bold" font-size="35">Horizontal Path</text>
  <text x="1485" y="1300" text-anchor="middle" fill="white" font-weight="bold" font-size="30"
        transform="rotate(-90,1485,1300)">Vertical Path</text>
  <text x="900" y="1870" text-anchor="middle" fill="#333" font-weight="bold" font-size="60">House</text>
  <text x="570" y="516" text-anchor="middle" fill="white" font-size="18">Dirt</text>
  <text x="500" y="1250" fill="#666" font-size="25">Soffit</text>
  <text x="420" y="516" text-anchor="middle" fill="white" font-size="16">Door</text>

  <!-- Heat pump label (driveway, pointing up at office one) -->
  <text x="625" y="640" fill="white" font-size="22">Heat Pump</text>
  <line x1="655" y1="620" x2="655" y2="550" stroke="white" stroke-width="2" marker-end="url(#arrowhead-white)"/>

  <!-- Heat pump label (grass, pointing down at house one) -->
  <text x="1260" y="1100" fill="white" font-size="22">Heat Pump</text>
  <line x1="1355" y1="1110" x2="1355" y2="1238" stroke="white" stroke-width="2" marker-end="url(#arrowhead-white)"/>
</svg>
