<svg xmlns="http://www.w3.org/2000/svg" font-family="Arial, sans-serif" viewBox="0 0 1620 2435" width="500">
  <defs>
    <pattern id="soffit-hatch" width="40" height="40" patternUnits="userSpaceOnUse" patternTransform="rotate(45)">
      <rect width="40" height="40" fill="#ffff00"/>
      <line x1="0" y1="0" x2="0" y2="40" stroke="#cccc00" stroke-width="8"/>
    </pattern>
    <marker id="arrowhead" markerWidth="6" markerHeight="4" refX="6" refY="2" orient="auto">
      <polygon points="0,0 6,2 0,4" fill="#333"/>
    </marker>
    <marker id="arrowhead-white" markerWidth="6" markerHeight="4" refX="6" refY="2" orient="auto">
      <polygon points="0,0 6,2 0,4" fill="white"/>
    </marker>
  </defs>

  <!-- White background for label area -->
  <rect x="1438" y="0" width="182" height="2435" fill="white"/>

  <!-- Garage: x=0, w=265, h=500 -->
  <rect x="0" y="0" width="265" height="500" fill="#db791e" stroke="#000" stroke-width="4"/>

  <!-- Wall Space: x=265, w=21, h=500 -->
  <rect x="265" y="0" width="21" height="500" fill="#8B6914" stroke="#000" stroke-width="2"/>

  <!-- Office: x=286, w=382, h=500 -->
  <rect x="286" y="0" width="382" height="500" fill="#2a6dbf" stroke="#000" stroke-width="4"/>

  <!-- Office door: x=286, y=500, w=60, h=60 -->
  <rect x="286" y="500" width="60" height="60" fill="#333" stroke="#000" stroke-width="2"/>

  <!-- Dirt below office: x=346, y=500, w=322, h=60 -->
  <rect x="346" y="500" width="322" height="60" fill="#59320e" stroke="#000" stroke-width="2"/>

  <!-- Heat pump on dirt: 78cm wide, 70cm from right edge of office -->
  <rect x="520" y="515" width="78" height="30" fill="white" stroke="#000" stroke-width="2"/>

  <!-- Driveway (L-shape: below garage + in front of office) -->
  <polygon points="0,500 286,500 286,560 668,560 668,1145 286,1145 0,1145"
           fill="#7f7f7f" stroke="#000" stroke-width="2"/>
  <!-- Driveway continues below (under h-path level) -->
  <rect x="0" y="1145" width="286" height="80" fill="#7f7f7f" stroke="#000" stroke-width="2"/>

  <!-- Grass: x=668, w=690, h=1145 -->
  <rect x="668" y="0" width="690" height="1145" fill="#3f7f00" stroke="#000" stroke-width="2"/>

  <!-- Horizontal Path: x=668, y=1145, w=690, h=80 -->
  <rect x="668" y="1145" width="690" height="80" fill="#7f7f7f" stroke="#000" stroke-width="2"/>

  <!-- Vertical Path: x=1358, w=80, h=2435 -->
  <rect x="1358" y="0" width="80" height="2435" fill="#7f7f7f" stroke="#000" stroke-width="2"/>

  <!-- House soffit (hatched, outer): x=286, y=1225, w=1072, h=1210 -->
  <rect x="286" y="1225" width="1072" height="1210" fill="url(#soffit-hatch)" stroke="#000" stroke-width="4"/>

  <!-- House walls (solid yellow, inner): inset 60cm -->
  <rect x="346" y="1285" width="952" height="1090" fill="#ffff00" stroke="#000" stroke-width="2"/>

  <!-- House heat pump (under soffit, top-right corner, dashed) -->
  <rect x="1238" y="1240" width="60" height="30" fill="white" stroke="#000" stroke-width="2" stroke-dasharray="10,5"/>

  <!-- Fibre box (right wall, 1/5 up from bottom) -->
  <rect x="1288" y="2190" width="20" height="40" fill="#000" stroke="#000" stroke-width="2"/>
  <text x="1450" y="2215" text-anchor="start" fill="#333" font-size="30">Fibre Box</text>
  <line x1="1440" y1="2210" x2="1312" y2="2210" stroke="#333" stroke-width="2" marker-end="url(#arrowhead)"/>

  <!-- Labels -->
  <text x="132" y="260" text-anchor="middle" fill="white" font-weight="bold" font-size="40">Garage</text>
  <text x="275" y="260" text-anchor="middle" fill="white" font-weight="bold" font-size="14"
        transform="rotate(-90,275,260)">Wall Space</text>
  <text x="477" y="260" text-anchor="middle" fill="white" font-weight="bold" font-size="40">Office</text>
  <text x="1013" y="400" text-anchor="middle" fill="white" font-weight="bold" font-size="55">Grass</text>
  <text x="143" y="900" text-anchor="middle" fill="white" font-weight="bold" font-size="35">Driveway</text>
  <text x="1013" y="1195" text-anchor="middle" fill="white" font-weight="bold" font-size="30">Horizontal Path</text>
  <text x="1398" y="1300" text-anchor="middle" fill="white" font-weight="bold" font-size="25"
        transform="rotate(-90,1398,1300)">Vertical Path</text>
  <text x="820" y="1870" text-anchor="middle" fill="#333" font-weight="bold" font-size="60">House</text>
  <text x="470" y="536" text-anchor="middle" fill="white" font-size="18">Dirt</text>
  <text x="400" y="1250" fill="#666" font-size="25">Soffit</text>
  <text x="316" y="536" text-anchor="middle" fill="white" font-size="16">Door</text>

  <!-- Heat pump label (driveway, pointing up at office one) -->
  <text x="480" y="640" fill="white" font-size="22">Heat Pump</text>
  <line x1="559" y1="620" x2="559" y2="550" stroke="white" stroke-width="2" marker-end="url(#arrowhead-white)"/>

  <!-- Heat pump label (grass, pointing down at house one) -->
  <text x="1170" y="1100" fill="white" font-size="22">Heat Pump</text>
  <line x1="1268" y1="1110" x2="1268" y2="1238" stroke="white" stroke-width="2" marker-end="url(#arrowhead-white)"/>
</svg>
